<svg width="20" height="20" viewBox="0 0 20 20" fill="none" xmlns="http://www.w3.org/2000/svg">
<mask id="mask0_1873_676" style="mask-type:alpha" maskUnits="userSpaceOnUse" x="0" y="0" width="20" height="20">
<rect width="20" height="20" fill="#D9D9D9"/>
</mask>
<g mask="url(#mask0_1873_676)">
<path d="M10 19.167L7.5 16.667H4.16667C3.70833 16.667 3.31597 16.5038 2.98958 16.1774C2.66319 15.851 2.5 15.4587 2.5 15.0003V3.33366C2.5 2.87533 2.66319 2.48296 2.98958 2.15658C3.31597 1.83019 3.70833 1.66699 4.16667 1.66699H15.8333C16.2917 1.66699 16.684 1.83019 17.0104 2.15658C17.3368 2.48296 17.5 2.87533 17.5 3.33366V15.0003C17.5 15.4587 17.3368 15.851 17.0104 16.1774C16.684 16.5038 16.2917 16.667 15.8333 16.667H12.5L10 19.167ZM4.16667 14.042C4.91667 13.3059 5.78819 12.726 6.78125 12.3024C7.77431 11.8788 8.84722 11.667 10 11.667C11.1528 11.667 12.2257 11.8788 13.2188 12.3024C14.2118 12.726 15.0833 13.3059 15.8333 14.042V3.33366H4.16667V14.042ZM10 10.0003C10.8056 10.0003 11.4931 9.7156 12.0625 9.14616C12.6319 8.57671 12.9167 7.88921 12.9167 7.08366C12.9167 6.2781 12.6319 5.5906 12.0625 5.02116C11.4931 4.45171 10.8056 4.16699 10 4.16699C9.19444 4.16699 8.50694 4.45171 7.9375 5.02116C7.36806 5.5906 7.08333 6.2781 7.08333 7.08366C7.08333 7.88921 7.36806 8.57671 7.9375 9.14616C8.50694 9.7156 9.19444 10.0003 10 10.0003ZM5.83333 15.0003H14.1667V14.792C13.5833 14.3059 12.9375 13.9413 12.2292 13.6982C11.5208 13.4552 10.7778 13.3337 10 13.3337C9.22222 13.3337 8.47917 13.4552 7.77083 13.6982C7.0625 13.9413 6.41667 14.3059 5.83333 14.792V15.0003ZM10 8.33366C9.65278 8.33366 9.35764 8.21213 9.11458 7.96908C8.87153 7.72602 8.75 7.43088 8.75 7.08366C8.75 6.73644 8.87153 6.4413 9.11458 6.19824C9.35764 5.95519 9.65278 5.83366 10 5.83366C10.3472 5.83366 10.6424 5.95519 10.8854 6.19824C11.1285 6.4413 11.25 6.73644 11.25 7.08366C11.25 7.43088 11.1285 7.72602 10.8854 7.96908C10.6424 8.21213 10.3472 8.33366 10 8.33366Z" fill="#8C8C8C"/>
</g>
</svg>
