<svg width="20" height="20" viewBox="0 0 20 20" fill="none" xmlns="http://www.w3.org/2000/svg">
<mask id="mask0_1873_673" style="mask-type:alpha" maskUnits="userSpaceOnUse" x="0" y="0" width="20" height="20">
<rect width="20" height="20" fill="#D9D9D9"/>
</mask>
<g mask="url(#mask0_1873_673)">
<path d="M3.33335 10.8337V12.5003H16.6667V10.8337H3.33335ZM3.33335 1.66699H16.6667C17.125 1.66699 17.5174 1.83019 17.8438 2.15658C18.1702 2.48296 18.3334 2.87533 18.3334 3.33366V12.5003C18.3334 12.9587 18.1702 13.351 17.8438 13.6774C17.5174 14.0038 17.125 14.167 16.6667 14.167H13.3334V18.3337L10 16.667L6.66669 18.3337V14.167H3.33335C2.87502 14.167 2.48266 14.0038 2.15627 13.6774C1.82988 13.351 1.66669 12.9587 1.66669 12.5003V3.33366C1.66669 2.87533 1.82988 2.48296 2.15627 2.15658C2.48266 1.83019 2.87502 1.66699 3.33335 1.66699ZM3.33335 8.33366H16.6667V3.33366H3.33335V8.33366Z" fill="#8C8C8C"/>
</g>
</svg>
