<svg width="20" height="20" viewBox="0 0 20 20" fill="none" xmlns="http://www.w3.org/2000/svg">
<mask id="mask0_1873_664" style="mask-type:alpha" maskUnits="userSpaceOnUse" x="0" y="0" width="20" height="20">
<rect width="20" height="20" fill="#D9D9D9"/>
</mask>
<g mask="url(#mask0_1873_664)">
<path d="M7.49998 10.8337H15.8333L12.9583 7.08366L11.0416 9.58366L9.74998 7.91699L7.49998 10.8337ZM2.49998 17.5003C2.04165 17.5003 1.64929 17.3371 1.3229 17.0107C0.996507 16.6844 0.833313 16.292 0.833313 15.8337V5.00033H2.49998V15.8337H16.6666V17.5003H2.49998ZM5.83331 14.167C5.37498 14.167 4.98262 14.0038 4.65623 13.6774C4.32984 13.351 4.16665 12.9587 4.16665 12.5003V3.33366C4.16665 2.87533 4.32984 2.48296 4.65623 2.15658C4.98262 1.83019 5.37498 1.66699 5.83331 1.66699H9.99998L11.6666 3.33366H17.5C17.9583 3.33366 18.3507 3.49685 18.6771 3.82324C19.0035 4.14963 19.1666 4.54199 19.1666 5.00033V12.5003C19.1666 12.9587 19.0035 13.351 18.6771 13.6774C18.3507 14.0038 17.9583 14.167 17.5 14.167H5.83331ZM5.83331 12.5003H17.5V5.00033H10.9791L9.31248 3.33366H5.83331V12.5003Z" fill="#8C8C8C"/>
</g>
</svg>
